<?xml version="1.0" encoding="UTF-8"?>
<svg id="Layer_2" data-name="Layer 2" xmlns="http://www.w3.org/2000/svg" viewBox="0 0 283.46 268.18">
  <defs>
    <style>
      .cls-1 {
        fill: #fff;
        fill-rule: evenodd;
        stroke-width: 0px;
      }
    </style>
  </defs>
  <g id="_レイヤー_1" data-name="レイヤー 1">
    <path class="cls-1" d="M176.06,0c-12.8,0-25.43,2.78-34.33,6.43-8.89-3.65-21.52-6.43-34.33-6.43C50.96,0,0,53.37,0,126.6c0,79.84,65.22,141.58,141.73,141.58s141.74-61.74,141.74-141.58C283.46,53.37,232.5,0,176.06,0h0ZM141.73,43.48c10.88,6.47,25.24,25.22,25.24,46.36,0,15.51-10.23,27.72-25.24,27.72s-25.24-12.21-25.24-27.72c0-21.14,14.37-39.89,25.24-46.36h0ZM141.73,233.31c-58.5,0-106.89-47.05-106.89-107.4,0-55.09,39.76-92.74,71-91.33-14.8,14.75-23.77,36.23-23.77,57.04,0,35.77,28.39,60.85,59.66,60.85s59.66-25.08,59.66-60.85c0-20.81-8.98-42.29-23.77-57.04,31.25-1.4,71,36.24,71,91.33,0,60.35-48.4,107.4-106.89,107.4Z"/>
  </g>
</svg>