<svg width="96" height="96" xmlns="http://www.w3.org/2000/svg" xmlns:xlink="http://www.w3.org/1999/xlink" xml:space="preserve" overflow="hidden"><defs><clipPath id="clip0"><rect x="592" y="312" width="96" height="96"/></clipPath></defs><g clip-path="url(#clip0)" transform="translate(-592 -312)"><path d="M661.025 356.015 661.025 344.031C661.025 332.419 651.611 323.005 639.999 323.005 628.387 323.005 618.973 332.419 618.973 344.031L618.973 356.014 611.997 356.514 611.997 394.523 639.997 396.523 667.997 394.523 667.997 356.512ZM620.973 344.031C620.973 333.523 629.491 325.005 639.999 325.005 650.507 325.005 659.025 333.523 659.025 344.031L659.025 355.881 656 355.679 656 344.006C656 335.169 648.837 328.006 640 328.006 631.163 328.006 624 335.169 624 344.006L624 355.679 620.975 355.879ZM654 355.539 640 354.512 626 355.539 626 344.006C626 336.274 632.268 330.006 640 330.006 647.732 330.006 654 336.274 654 344.006ZM666 392.661 640 394.519 614 392.661 614 358.375 619.134 358.008 625.147 357.608 640 356.517 654.867 357.608 660.858 358.008 666 358.375Z"/><path d="M640 367.516C636.117 367.532 632.983 370.692 632.999 374.575 633.01 377.273 634.565 379.727 637 380.89L637 386.521 643 386.521 643 380.866C645.418 379.667 646.962 377.216 647 374.518 646.996 370.653 643.865 367.521 640 367.516ZM641.635 379.288 641 379.537 641 384.521 639 384.521 639 379.508 638.328 379.275C635.711 378.362 634.329 375.5 635.242 372.883 636.155 370.266 639.017 368.884 641.634 369.797 643.643 370.498 644.992 372.39 645 374.518 644.956 376.646 643.624 378.534 641.634 379.288Z"/></g></svg>