<svg width="441" height="440" xmlns="http://www.w3.org/2000/svg" xmlns:xlink="http://www.w3.org/1999/xlink" xml:space="preserve" overflow="hidden"><defs><clipPath id="clip0"><rect x="21" y="12" width="441" height="440"/></clipPath></defs><g clip-path="url(#clip0)" transform="translate(-21 -12)"><path d="M356.418 64.1667 83.5817 64.1667 55.165 168.378 55 197.083C55.0133 208.726 62.3567 219.098 73.3333 222.979L73.3333 375.833 366.667 375.833 366.667 222.979C377.643 219.098 384.987 208.726 385 197.083L385 169.583ZM256.667 169.171 247.958 73.3333 289.667 73.3333 311.667 170.097 311.667 188.375C311.652 203.303 299.553 215.402 284.625 215.417L283.708 215.417C268.78 215.402 256.682 203.303 256.667 188.375L256.667 169.583ZM247.5 188.375C247.485 203.303 235.387 215.402 220.458 215.417L219.542 215.417C204.613 215.402 192.515 203.303 192.5 188.375L192.5 169.799 201.268 73.3333 238.732 73.3333 247.5 169.583ZM192.065 73.3333 183.333 169.583 183.333 188.375C183.318 203.303 171.22 215.402 156.292 215.417L155.375 215.417C140.447 215.402 128.348 203.303 128.333 188.375L128.333 170.097 150.333 73.3333ZM119.167 169.583 119.167 188.375C119.152 203.303 107.053 215.402 92.125 215.417L82.5 215.417C72.375 215.417 64.1667 207.208 64.1667 197.083L64.1667 170.197 90.585 73.3333 140.924 73.3333 119.281 168.566ZM238.333 366.667 238.333 261.25 316.25 261.25 316.25 366.667ZM357.5 366.667 325.417 366.667 325.417 252.083 229.167 252.083 229.167 366.667 82.5 366.667 82.5 224.583 92.125 224.583C105.265 224.574 117.368 217.447 123.75 205.961 130.132 217.447 142.236 224.574 155.375 224.583L156.292 224.583C169.431 224.574 181.535 217.447 187.917 205.961 194.299 217.447 206.402 224.574 219.542 224.583L220.458 224.583C233.598 224.574 245.702 217.447 252.083 205.961 258.465 217.447 270.569 224.574 283.708 224.583L284.625 224.583C297.764 224.574 309.868 217.447 316.25 205.961 322.632 217.447 334.736 224.574 347.875 224.583L357.5 224.583ZM375.833 197.083C375.833 207.208 367.625 215.417 357.5 215.417L347.875 215.417C332.947 215.402 320.848 203.303 320.833 188.375L320.833 169.583 299.076 73.3333 349.415 73.3333 375.833 170.197Z" transform="matrix(1.00227 0 0 1 21 12)"/><path d="M114.583 330 192.5 330 192.5 252.083 114.583 252.083ZM123.75 261.25 183.333 261.25 183.333 320.833 123.75 320.833Z" transform="matrix(1.00227 0 0 1 21 12)"/></g></svg>