<svg width="96" height="96" xmlns="http://www.w3.org/2000/svg" xmlns:xlink="http://www.w3.org/1999/xlink" xml:space="preserve" overflow="hidden"><defs><clipPath id="clip0"><rect x="299" y="282" width="96" height="96"/></clipPath></defs><g clip-path="url(#clip0)" transform="translate(-299 -282)"><path d="M317 350 376 350C376.6 350 377 349.6 377 349 377 348.8 377 348.7 376.9 348.5L362.9 324.5C362.7 324.2 362.4 324 362 324L362 324C361.6 324 361.3 324.2 361.1 324.5L354.8 336.2 339.8 313.4C339.7 313.2 339.3 313 339 313L339 313C338.7 313 338.3 313.2 338.2 313.5L326.3 332.3C326.2 332.4 326.1 332.6 326 332.7L316.1 348.5C315.8 349 315.9 349.6 316.4 349.9 316.6 349.9 316.8 350 317 350ZM362 327.1 374.3 348 362.5 348 356 338.1 362 327.1C362 327.1 362 327.1 362 327.1 362 327.1 362 327.1 362 327.1ZM349.1 331.2 343 327.6C342.6 327.4 342.1 327.4 341.8 327.8L339 330.6 336.7 328.3C336.4 328 336 327.9 335.6 328.1L329.7 330.7 339 315.9C339 315.9 339 315.9 339 315.9L349.1 331.2ZM327.8 333.8 335.8 330.2 338.3 332.7C338.7 333.1 339.3 333.1 339.7 332.7L342.7 329.7 351.5 334.8C351.5 334.8 351.5 334.8 351.5 334.8L360.1 348 318.8 348 327.8 333.8Z"/><path d="M326 317C327.7 317 329 315.7 329 314 329 312.3 327.7 311 326 311 324.3 311 323 312.3 323 314 323 315.7 324.3 317 326 317ZM326 313C326.6 313 327 313.4 327 314 327 314.6 326.6 315 326 315 325.4 315 325 314.6 325 314 325 313.4 325.4 313 326 313Z"/><path d="M385 302 309 302 309 360 385 360 385 302ZM383 358 311 358 311 304 383 304 383 358Z"/></g></svg>