<svg width="96" height="96" xmlns="http://www.w3.org/2000/svg" xmlns:xlink="http://www.w3.org/1999/xlink" xml:space="preserve" overflow="hidden"><defs><clipPath id="clip0"><rect x="592" y="312" width="96" height="96"/></clipPath></defs><g clip-path="url(#clip0)" transform="translate(-592 -312)"><path d="M620 354 660 354 660 356 620 356Z"/><path d="M620 346 639 346 639 348 620 348Z"/><path d="M620 362 660 362 660 364 620 364Z"/><path d="M620 370 660 370 660 372 620 372Z"/><path d="M620 378 660 378 660 380 620 380Z"/><path d="M620 386 660 386 660 388 620 388Z"/><path d="M610 320 610 400 670 400 670 341.586 648.414 320ZM649.017 323.431 666.569 340.983C666.573 340.987 666.573 340.993 666.569 340.997 666.567 340.999 666.565 341 666.562 341L649 341 649 323.438C649 323.432 649.005 323.428 649.01 323.428 649.013 323.428 649.015 323.429 649.017 323.431ZM612 398 612 322 647 322 647 343 668 343 668 398Z"/></g></svg>