<svg width="441" height="440" xmlns="http://www.w3.org/2000/svg" xmlns:xlink="http://www.w3.org/1999/xlink" xml:space="preserve" overflow="hidden"><defs><clipPath id="clip0"><rect x="293" y="290" width="441" height="440"/></clipPath></defs><g clip-path="url(#clip0)" transform="translate(-293 -290)"><path d="M357.5 300.667 294.754 200.658C293.631 198.825 291.632 197.713 289.483 197.725 287.325 197.724 285.317 198.832 284.167 200.658L265.833 230.083 305.158 293.7C308.486 298.733 309.202 305.055 307.083 310.704L351.542 310.704C355.182 310.886 358.281 308.082 358.462 304.441 358.529 303.115 358.193 301.8 357.5 300.667Z" transform="matrix(1.00227 0 0 1 293 290)"/><path d="M289.208 301.263 189.521 139.058C188.242 137.406 186.247 136.468 184.158 136.538L183.333 136.538 182.508 136.538C180.42 136.468 178.425 137.406 177.146 139.058L77.4583 301.263C76.0462 303.238 75.8519 305.836 76.9542 308 78.0661 309.961 80.2702 311.036 82.5 310.704L284.167 310.704C286.396 311.036 288.601 309.961 289.712 308 290.815 305.836 290.62 303.238 289.208 301.263ZM200.017 215.05 184.158 229.167 168.3 215.05 142.083 230.908 183.333 164.038 223.483 229.167Z" transform="matrix(1.00227 0 0 1 293 290)"/><path d="M137.5 146.667C137.5 154.261 131.344 160.417 123.75 160.417 116.156 160.417 110 154.261 110 146.667 110 139.073 116.156 132.917 123.75 132.917 131.344 132.917 137.5 139.073 137.5 146.667Z" transform="matrix(1.00227 0 0 1 293 290)"/><path d="M64.1667 339.167 64.1667 110 375.833 110 375.833 339.167ZM403.333 366.667 403.333 82.5 36.6667 82.5 36.6667 366.667Z" transform="matrix(1.00227 0 0 1 293 290)"/></g></svg>