<svg width="314" height="315" xmlns="http://www.w3.org/2000/svg" xmlns:xlink="http://www.w3.org/1999/xlink" xml:space="preserve" overflow="hidden"><defs><clipPath id="clip0"><rect x="700" y="-22" width="314" height="315"/></clipPath></defs><g clip-path="url(#clip0)" transform="translate(-700 22)"><path d="M255.125 62.1458C258.738 62.1458 261.667 65.0745 261.667 68.6875L261.667 199.521C261.667 203.134 258.738 206.062 255.125 206.062L215.875 206.062 215.875 242.604 182.885 209.615 180.969 207.698 58.875 207.698C55.262 207.698 52.3333 204.769 52.3333 201.156L52.3333 68.6875C52.3333 65.0745 55.262 62.1458 58.875 62.1458L255.125 62.1458M255.125 55.6042 58.875 55.6042C51.6494 55.6042 45.7917 61.4619 45.7917 68.6875L45.7917 201.156C45.7917 208.382 51.6494 214.24 58.875 214.24L178.26 214.24 222.417 258.396 222.417 212.604 255.125 212.604C262.351 212.604 268.208 206.746 268.208 199.521L268.208 68.6875C268.208 61.4619 262.351 55.6042 255.125 55.6042Z" transform="matrix(1 0 0 1.00318 700 -22)"/><path d="M219.146 134.104C219.146 139.523 214.753 143.917 209.333 143.917 203.914 143.917 199.521 139.523 199.521 134.104 199.521 128.685 203.914 124.292 209.333 124.292 214.753 124.292 219.146 128.685 219.146 134.104Z" transform="matrix(1 0 0 1.00318 700 -22)"/><path d="M166.812 134.104C166.812 139.523 162.419 143.917 157 143.917 151.581 143.917 147.188 139.523 147.188 134.104 147.188 128.685 151.581 124.292 157 124.292 162.419 124.292 166.812 128.685 166.812 134.104Z" transform="matrix(1 0 0 1.00318 700 -22)"/><path d="M114.479 134.104C114.479 139.523 110.086 143.917 104.667 143.917 99.2474 143.917 94.8542 139.523 94.8542 134.104 94.8542 128.685 99.2474 124.292 104.667 124.292 110.086 124.292 114.479 128.685 114.479 134.104Z" transform="matrix(1 0 0 1.00318 700 -22)"/></g></svg>