<svg width="36" height="36" xmlns="http://www.w3.org/2000/svg" xmlns:xlink="http://www.w3.org/1999/xlink" xml:space="preserve" overflow="hidden"><defs><clipPath id="clip0"><rect x="664" y="-40" width="36" height="36"/></clipPath></defs><g clip-path="url(#clip0)" transform="translate(-664 40)"><path d="M682-32.5C682.412-32.5 682.75-32.1625 682.75-31.75 682.75-31.3375 682.412-31 682-31 681.588-31 681.25-31.3375 681.25-31.75 681.25-32.1625 681.588-32.5 682-32.5ZM686.5-10C686.5-10.4125 686.162-10.75 685.75-10.75L683.125-10.75 683.125-29.8C683.463-29.9875 683.763-30.2875 683.95-30.625L691.15-30.625 689.05-19.75 690.588-19.75 692.237-28.3 694.338-19.75 695.875-19.75 693.138-30.625 693.625-30.625C694.263-30.625 694.75-31.1125 694.75-31.75 694.75-32.3875 694.263-32.875 693.625-32.875L683.95-32.875C683.763-33.2125 683.463-33.5125 683.125-33.7L683.125-35.875C683.125-36.5125 682.638-37 682-37 681.362-37 680.875-36.5125 680.875-35.875L680.875-33.7C680.537-33.5125 680.237-33.2125 680.05-32.875L670.375-32.875C669.737-32.875 669.25-32.3875 669.25-31.75 669.25-31.225 669.625-30.7375 670.15-30.6625L668.013-19.75 669.55-19.75 671.2-28.3 673.338-19.75 674.875-19.75 672.138-30.625 680.013-30.625C680.2-30.2875 680.5-29.9875 680.838-29.8L680.838-10.75 678.213-10.75C677.8-10.75 677.463-10.4125 677.463-10L677.463-9.25 673-9.25 673-7 691-7 691-9.25 686.5-9.25 686.5-10Z"/><path d="M676-18.625 667-18.625C667-17.3875 669.025-16.375 671.5-16.375 673.975-16.375 676-17.3875 676-18.625Z"/><path d="M688-18.625C688-17.3875 690.025-16.375 692.5-16.375 694.975-16.375 697-17.3875 697-18.625L688-18.625Z"/></g></svg>