<svg width="96" height="96" xmlns="http://www.w3.org/2000/svg" xmlns:xlink="http://www.w3.org/1999/xlink" xml:space="preserve" overflow="hidden"><defs><clipPath id="clip0"><rect x="592" y="312" width="96" height="96"/></clipPath></defs><g clip-path="url(#clip0)" transform="translate(-592 -312)"><path d="M640 362C641.091 362 642.179 361.891 643.248 361.675 642.634 361.182 642.122 360.574 641.742 359.885 633.767 360.874 626.501 355.212 625.511 347.237 624.522 339.263 630.185 331.996 638.159 331.006 646.134 330.017 653.4 335.68 654.39 343.654 654.681 346.003 654.395 348.387 653.557 350.6L655.908 349.816C658.286 341.025 653.087 331.97 644.296 329.592 635.505 327.214 626.45 332.413 624.072 341.204 621.694 349.995 626.893 359.05 635.684 361.428 637.091 361.809 638.542 362.001 640 362Z"/><path d="M668.516 374.537C663.929 371.005 658.674 368.439 653.068 366.993 648.833 365.693 644.43 365.026 640 365.015 635.581 365.089 631.191 365.753 626.947 366.989 621.41 368.615 616.188 371.164 611.5 374.529 609.352 376.215 608.076 378.778 608.026 381.508L608.026 397 610.026 397 610.026 381.508C610.07 379.4 611.056 377.422 612.713 376.119 617.198 372.905 622.194 370.471 627.489 368.919 631.556 367.732 635.764 367.091 640 367.015 644.238 367.029 648.45 367.669 652.5 368.915 657.852 370.288 662.87 372.73 667.252 376.094 668.927 377.398 669.927 379.387 669.974 381.51L669.974 397 671.974 397 671.974 381.508C671.927 378.783 670.657 376.223 668.516 374.537Z"/><path d="M625.714 332C633.44 324.113 646.097 323.982 653.984 331.708 656.282 333.959 658.002 336.73 659 339.788L659 351.946 649.355 355.161C648.334 353.862 646.454 353.637 645.155 354.658 643.856 355.678 643.631 357.559 644.652 358.857 645.672 360.156 647.553 360.382 648.852 359.361 649.56 358.804 649.98 357.957 649.994 357.056L662.231 352.977C663.788 352.857 664.993 351.562 665 350L665 342C665 340.343 663.657 339 662 339L660.833 339C656.98 327.489 644.525 321.281 633.014 325.134 629.713 326.239 626.721 328.113 624.286 330.6 623.894 330.989 623.891 331.622 624.28 332.014 624.669 332.406 625.302 332.409 625.694 332.02 625.701 332.014 625.707 332.007 625.714 332ZM663 342 663 350C663 350.552 662.552 351 662 351L661 351 661 341 662 341C662.552 341 663 341.448 663 342Z"/></g></svg>