<?xml version="1.0" standalone="no"?>
<!DOCTYPE svg PUBLIC "-//W3C//DTD SVG 20010904//EN"
 "http://www.w3.org/TR/2001/REC-SVG-20010904/DTD/svg10.dtd">
<svg version="1.0" xmlns="http://www.w3.org/2000/svg"
 width="800.000000pt" height="800.000000pt" viewBox="0 0 800.000000 800.000000"
 preserveAspectRatio="xMidYMid meet">
<metadata>
Created by potrace 1.16, written by Peter Selinger 2001-2019
</metadata>
<g transform="translate(0.000000,800.000000) scale(0.100000,-0.100000)"
fill="#000000" stroke="none">
<path d="M3770 7129 c-345 -27 -751 -127 -1034 -254 -602 -269 -1079 -682
-1432 -1241 -170 -270 -327 -677 -394 -1020 -88 -459 -72 -1098 32 -1272 36
-59 120 -141 170 -166 52 -27 144 -36 328 -33 191 2 208 -2 261 -60 40 -45 56
-74 89 -174 39 -114 69 -175 127 -257 54 -76 170 -177 255 -222 164 -86 264
-146 316 -190 31 -26 291 -281 577 -566 286 -286 540 -534 565 -552 25 -18 74
-55 110 -82 36 -28 109 -84 164 -125 l99 -75 121 0 c438 0 1000 153 1420 387
442 246 849 634 1125 1073 371 589 544 1379 455 2080 -90 710 -409 1350 -929
1863 -351 347 -831 630 -1295 766 -130 37 -422 96 -550 111 -138 15 -447 20
-580 9z m610 -239 c634 -76 1182 -347 1691 -838 55 -53 105 -105 110 -115 19
-35 -6 -47 -97 -47 l-83 0 -68 63 c-37 34 -74 68 -82 75 -7 7 -71 58 -141 112
-403 314 -818 494 -1270 550 -52 6 -382 10 -867 10 -430 0 -784 4 -787 8 -17
28 135 128 252 167 30 9 86 21 125 25 104 12 1102 4 1217 -10z m60 -407 c103
-35 186 -90 300 -199 58 -55 166 -152 241 -216 320 -274 476 -490 580 -798 54
-161 70 -258 75 -450 l5 -175 -54 56 c-30 31 -99 117 -155 191 -205 272 -352
367 -623 403 -47 6 -47 6 -69 66 -41 109 -177 274 -293 352 -81 56 -202 108
-298 127 -114 24 -326 26 -439 5 -154 -28 -367 -76 -430 -96 -243 -78 -481
-287 -599 -524 -51 -103 -75 -177 -95 -295 -23 -135 -14 -130 -247 -130 -176
0 -190 1 -209 20 -55 55 11 382 120 601 182 361 493 612 815 659 56 8 249 10
630 8 606 -5 598 -4 729 -70 98 -49 144 -85 264 -202 92 -90 112 -115 112
-139 0 -37 57 -97 93 -97 70 0 117 44 117 109 0 35 -6 51 -27 73 -15 15 -32
28 -38 28 -7 0 -32 26 -57 58 -71 89 -199 215 -267 262 -129 87 -251 132 -411
150 -115 13 -1073 13 -1179 0 -46 -6 -116 -22 -156 -35 -93 -31 -113 -31 -126
-1 -28 60 17 169 92 223 88 63 81 62 844 60 683 -2 691 -2 755 -24z m-1980
-132 c19 -10 48 -36 63 -58 95 -134 -14 -303 -179 -278 -38 5 -57 16 -90 49
-58 58 -73 110 -50 181 18 59 67 110 114 121 15 3 32 7 37 9 18 5 69 -7 105
-24z m-391 -357 c12 -25 39 -73 61 -105 22 -32 40 -62 40 -65 0 -8 -467 -1
-475 8 -4 3 -1 16 5 28 6 12 14 19 17 16 3 -3 0 -14 -8 -23 -13 -16 -12 -17 3
-5 13 10 17 10 22 0 3 -7 3 1 1 18 -4 23 0 35 16 50 l22 19 -17 -27 c-14 -21
-15 -31 -6 -45 10 -16 11 -16 6 0 -3 9 -1 17 4 17 6 0 10 7 10 15 0 8 5 15 12
15 6 0 8 3 5 7 -8 8 11 33 25 33 6 0 5 -7 -2 -15 -7 -8 -8 -15 -3 -15 5 0 15
12 22 27 7 15 21 33 32 41 10 7 19 23 20 35 0 12 3 16 6 10 8 -20 23 -15 23 7
0 15 7 20 25 20 14 0 28 7 32 16 3 8 11 13 18 10 8 -3 11 2 8 15 -3 11 1 21
11 25 9 3 16 14 17 23 0 9 7 -12 14 -46 7 -34 23 -83 34 -109z m2071 -329 c92
-28 205 -93 276 -158 65 -60 144 -166 144 -194 0 -11 -68 -13 -377 -13 -430
-1 -494 -7 -608 -64 -304 -150 -423 -542 -247 -812 78 -118 199 -215 321 -256
63 -22 84 -23 512 -28 333 -4 450 -8 461 -17 8 -7 20 -31 27 -52 15 -53 52
-81 105 -81 65 1 106 45 106 115 0 41 -44 95 -78 95 -10 0 -29 16 -43 37 -13
20 -37 46 -52 57 -28 20 -43 21 -490 26 -312 4 -473 10 -495 18 -135 46 -249
183 -272 327 -26 161 77 342 240 419 l65 31 560 0 c626 0 609 2 734 -72 98
-58 164 -124 288 -289 69 -94 148 -185 204 -238 l92 -87 -21 -102 c-41 -191
-31 -237 113 -507 115 -217 125 -241 125 -300 0 -68 -23 -93 -120 -125 -132
-44 -151 -83 -95 -193 26 -51 13 -87 -47 -124 -54 -34 -54 -32 -32 -136 8 -39
-11 -64 -68 -93 -21 -11 -42 -28 -48 -38 -15 -28 -12 -92 6 -142 23 -64 21
-167 -5 -216 -36 -72 -133 -141 -236 -167 -87 -23 -321 -22 -355 1 -156 107
-564 449 -755 633 -86 83 -109 95 -159 86 -106 -20 -104 -172 2 -207 23 -8 72
-46 132 -103 141 -135 223 -209 340 -305 57 -47 121 -102 142 -121 36 -34 37
-36 23 -67 -22 -51 -65 -68 -170 -68 -76 0 -97 4 -135 24 -71 38 -107 69 -173
150 -123 153 -238 270 -497 507 -302 275 -348 321 -335 331 6 5 269 6 585 3
l575 -5 52 -30 c78 -44 219 -187 227 -229 9 -50 48 -81 102 -81 121 0 150 171
35 206 -27 8 -43 22 -60 51 -12 22 -54 73 -93 114 -54 56 -89 83 -146 112
l-76 37 -630 6 c-594 6 -636 7 -716 27 -427 105 -778 436 -924 872 -31 93 -66
264 -66 321 0 77 6 79 225 79 235 0 229 3 250 -120 27 -153 61 -239 151 -378
93 -142 243 -270 384 -328 144 -58 131 -57 735 -63 l560 -6 60 -28 c80 -37
299 -258 309 -312 9 -48 56 -85 108 -85 32 0 47 7 74 34 29 29 34 41 34 81 0
38 -5 52 -29 76 -18 18 -40 29 -58 29 -23 1 -35 12 -73 68 -58 86 -168 203
-228 241 -26 16 -78 39 -117 52 -69 23 -81 23 -635 28 l-565 6 -77 31 c-43 18
-100 46 -127 63 -68 44 -188 173 -234 251 -50 87 -88 209 -90 290 l-2 65 97 5
c75 4 101 9 116 24 29 26 36 69 18 105 -20 38 -66 52 -161 48 l-70 -2 -3 42
c-5 62 33 207 78 299 93 193 246 336 448 417 34 14 62 24 62 21 0 -11 -72
-108 -100 -134 -55 -51 -36 -146 35 -176 38 -15 71 -9 103 19 24 22 47 91 36
108 -3 6 0 16 8 22 8 7 38 42 67 79 118 152 212 190 451 184 88 -3 154 -10
190 -21z m2231 -54 c69 -43 102 -126 79 -198 -19 -57 -48 -93 -94 -114 -81
-37 -156 -20 -218 49 -60 66 -64 154 -10 221 61 77 162 94 243 42z m-4266 -72
c-57 -97 -111 -225 -121 -290 -12 -73 9 -70 -364 -62 l-335 6 37 78 c21 43 38
83 38 88 0 16 18 22 26 10 4 -8 3 -9 -4 -5 -7 4 -12 2 -12 -3 0 -6 4 -11 8
-11 17 0 21 13 11 32 -8 15 -8 23 1 32 8 8 10 7 5 -5 -9 -24 22 -32 35 -9 15
29 11 38 -5 10 -14 -25 -14 -25 -12 12 1 23 6 33 12 27 5 -5 20 -8 35 -8 17 1
19 3 7 6 -22 6 -12 23 14 23 11 0 24 11 31 25 8 18 19 25 40 25 15 0 28 4 28
9 0 5 9 13 21 16 15 5 18 10 10 18 -19 19 -12 28 9 10 17 -15 18 -19 5 -33
-23 -25 -18 -33 5 -10 12 12 18 26 14 32 -5 7 1 9 17 5 13 -3 33 -1 44 3 17 7
17 9 3 9 -30 1 -20 20 15 30 l32 9 -31 1 c-31 1 -51 -20 -38 -40 3 -5 0 -9 -5
-9 -6 0 -11 5 -11 11 0 6 -8 8 -19 4 -11 -3 -22 -2 -25 3 -3 6 0 10 7 9 30 -1
47 4 47 13 0 5 -26 11 -57 13 -32 2 76 4 239 5 l297 2 -54 -91z m-379 -559
c58 -25 121 -85 152 -144 36 -70 38 -188 4 -258 -30 -60 -89 -120 -150 -149
-72 -35 -187 -34 -264 4 -65 32 -121 90 -151 156 -32 69 -30 179 5 247 26 49
84 110 130 135 68 38 197 42 274 9z m4928 -191 c-2 -4 2 -23 11 -41 14 -30 15
-31 10 -5 -3 15 -1 27 5 27 5 0 10 -10 10 -22 0 -13 2 -32 4 -43 2 -11 1 -14
-1 -7 -5 14 -23 16 -23 3 0 -6 5 -13 11 -17 6 -3 9 -15 6 -25 -3 -11 -1 -17 3
-14 5 3 11 -3 13 -12 2 -10 2 -2 0 17 -3 28 -1 32 8 20 9 -12 10 -11 4 5 -4
11 -8 36 -10 55 -1 19 -1 27 2 18 3 -11 14 -18 30 -18 25 0 26 0 8 -20 -14
-15 -15 -20 -4 -21 8 0 25 -14 38 -31 20 -25 22 -32 10 -40 -11 -8 -10 -9 4
-4 20 6 23 -17 7 -59 -6 -15 -6 -24 -1 -20 27 16 15 155 -13 155 -6 0 -4 5 5
10 11 6 15 22 13 52 -2 31 0 38 8 25 5 -10 6 -27 3 -38 -5 -15 -4 -19 4 -15 6
4 11 1 11 -8 0 -8 -4 -18 -10 -21 -14 -9 -12 -28 5 -51 14 -18 14 -17 4 9 -12
26 -6 48 8 34 11 -12 8 -69 -7 -119 -11 -36 -11 -51 -2 -70 11 -21 12 -21 6 9
-3 18 0 50 7 70 l13 38 12 -50 c15 -63 17 -88 5 -80 -5 3 -3 -8 5 -24 24 -47
35 -162 41 -423 6 -248 -1 -357 -33 -568 -21 -136 -55 -281 -65 -274 -5 3 -6
-2 -3 -10 13 -34 -97 -345 -181 -512 -49 -99 -54 -104 -25 -24 23 63 23 63 11
55 -5 -3 -12 -1 -16 5 -6 9 16 15 39 11 5 -1 3 6 -5 15 -12 15 -12 16 0 9 11
-6 13 -2 7 21 -7 28 -7 28 9 9 9 -11 13 -14 10 -7 -4 7 0 21 8 30 8 9 22 33
30 54 14 34 14 36 -4 41 -25 7 -24 27 1 27 11 0 20 7 20 15 0 8 -3 14 -7 14
-20 -3 -23 2 -9 16 9 9 13 28 12 48 -2 17 -1 21 1 9 4 -23 5 -23 19 -5 14 17
15 16 9 -12 -4 -22 -3 -26 5 -15 14 22 1 81 -24 103 l-21 18 28 -4 c15 -2 27
0 27 4 0 5 -9 9 -20 9 -29 0 -25 27 5 34 34 9 31 19 -7 39 l-33 16 48 0 c26 1
47 6 47 11 0 6 -20 10 -45 10 -29 0 -45 4 -45 13 0 8 15 11 50 9 32 -3 50 0
50 7 0 6 -21 12 -47 12 -31 1 -38 3 -20 6 44 7 67 32 66 73 0 19 -3 29 -6 23
-2 -7 -17 -12 -31 -12 -22 1 -23 2 -6 6 12 2 24 13 27 25 4 14 11 19 21 15 10
-4 16 -1 16 8 0 8 -5 15 -11 15 -5 0 -7 5 -4 10 3 6 0 10 -7 10 -8 1 -6 6 6
15 18 14 18 15 2 15 -10 0 -20 -9 -23 -20 -3 -11 -9 -20 -14 -20 -12 0 -11 27
1 35 6 3 10 24 10 46 0 22 4 38 9 34 5 -3 12 -1 16 5 3 5 -1 10 -10 10 -10 0
-15 8 -14 23 5 52 -1 87 -15 87 -7 0 -16 -9 -19 -19 -6 -25 3 -71 14 -71 5 0
9 -11 9 -25 0 -14 -4 -25 -10 -25 -5 0 -10 9 -10 21 0 11 -4 17 -10 14 -16
-10 -12 -45 5 -45 8 0 15 -7 15 -15 0 -8 -4 -15 -10 -15 -5 0 -10 5 -10 10 0
6 -5 10 -11 10 -11 0 -10 -6 8 -62 3 -10 1 -18 -5 -18 -6 0 -13 8 -15 18 -4
13 -5 11 -6 -5 0 -13 3 -23 8 -23 5 0 1 -18 -10 -40 -10 -21 -19 -51 -19 -67
0 -17 -3 -24 -10 -17 -12 12 -1 86 13 77 6 -4 8 3 4 19 -4 14 0 49 7 79 8 29
12 57 10 61 -3 4 -1 16 5 26 16 30 32 584 18 599 -4 3 -7 29 -7 57 0 28 -9
111 -20 184 -11 74 -17 138 -14 143 3 5 0 9 -5 9 -6 0 -11 8 -11 18 -1 9 -13
62 -28 118 -21 73 -25 101 -16 101 7 0 11 -4 8 -8z m-259 -188 c138 -62 167
-250 54 -345 -125 -106 -298 -52 -344 107 -13 47 -14 59 -1 100 8 27 26 63 40
81 53 71 166 96 251 57z m-4433 -403 c27 -18 37 -36 77 -143 62 -164 183 -344
331 -495 104 -105 161 -147 320 -235 171 -94 196 -114 400 -312 107 -104 293
-279 413 -389 214 -196 439 -435 686 -732 54 -65 126 -143 160 -173 34 -30 64
-64 68 -77 11 -46 -42 -67 -104 -40 -15 7 -80 41 -143 77 -137 78 -102 45
-985 912 -279 274 -337 321 -545 449 -214 132 -373 308 -459 508 -68 156 -84
184 -143 247 -64 69 -145 117 -226 134 -33 7 -185 11 -401 11 l-349 0 -6 23
c-7 28 -8 195 0 224 4 16 15 23 38 25 17 2 214 2 438 2 344 -1 411 -4 430 -16z
m-729 -509 c26 -29 47 -56 47 -61 0 -26 152 -257 185 -280 5 -4 -39 -8 -100
-8 -86 0 -119 5 -151 19 -91 41 -154 181 -154 339 l0 55 63 -6 c60 -5 64 -7
110 -58z m579 33 c75 -37 129 -106 178 -226 49 -123 107 -215 223 -351 97
-114 190 -190 344 -282 59 -35 142 -90 183 -121 41 -31 287 -267 545 -523 602
-596 714 -704 915 -884 190 -170 210 -191 210 -225 0 -58 -32 -70 -180 -70
-142 0 -130 -5 -325 129 -154 106 -220 167 -901 844 -198 197 -385 376 -413
398 -51 37 -172 108 -311 180 -40 21 -94 62 -141 109 -105 105 -150 196 -189
386 -16 78 -38 161 -51 185 -29 58 -111 136 -187 179 -138 77 -146 84 -191
161 -24 41 -53 89 -64 108 l-20 33 164 -4 c147 -3 169 -6 211 -26z m4566 -124
c9 -9 12 -75 12 -237 0 -195 -2 -227 -17 -243 -20 -22 -41 -23 -65 -1 -16 15
-18 36 -18 243 0 242 2 250 50 250 14 0 31 -5 38 -12z m-137 -719 c28 -28 22
-49 -53 -182 -93 -165 -123 -193 -170 -150 -27 25 -22 60 20 127 21 34 58 98
81 144 39 74 46 82 72 82 16 0 38 -9 50 -21z m-449 -636 c27 -24 22 -55 -14
-89 -156 -145 -559 -405 -632 -408 -22 -1 -33 6 -45 26 -14 25 -14 29 4 53 11
15 54 45 95 67 107 58 311 194 405 269 135 109 150 116 187 82z m-983 -385
c36 -37 47 -83 32 -131 -17 -51 -44 -70 -106 -75 -52 -4 -56 -3 -90 31 -31 31
-35 41 -35 87 0 46 4 56 34 86 30 30 40 34 84 34 43 0 54 -4 81 -32z"/>
<path d="M3815 4947 c-133 -64 -190 -224 -122 -340 58 -98 164 -150 263 -128
66 15 135 67 171 129 23 39 28 59 28 112 -1 72 -18 114 -69 168 -72 77 -183
101 -271 59z"/>
<path d="M4359 4689 c-48 -18 -64 -88 -29 -131 l20 -26 203 -4 203 -3 65 -32
c44 -23 92 -60 157 -124 50 -51 92 -98 92 -106 0 -7 7 -29 15 -49 31 -74 143
-81 185 -11 43 70 4 167 -68 167 -13 0 -31 20 -55 58 -48 77 -159 183 -233
220 -33 17 -86 35 -119 41 -71 13 -400 13 -436 0z"/>
<path d="M1668 5539 c-26 -10 -58 -61 -58 -94 0 -83 118 -123 170 -58 62 79
-19 187 -112 152z"/>
<path d="M1520 4790 c-35 -38 -45 -79 -30 -125 16 -49 53 -75 108 -75 39 0 50
5 84 40 38 38 40 43 35 87 -7 68 -48 103 -118 103 -44 0 -55 -4 -79 -30z"/>
<path d="M1289 2855 c-34 -18 -53 -66 -46 -111 8 -48 14 -54 106 -103 43 -24
98 -59 123 -79 93 -77 299 -328 434 -529 47 -70 103 -146 123 -168 41 -45 120
-99 194 -134 81 -39 139 -89 405 -353 372 -368 388 -382 469 -406 105 -32 274
-73 285 -70 5 2 -47 57 -114 123 -68 66 -274 268 -458 450 -185 181 -394 382
-465 446 -178 159 -302 290 -490 519 -196 239 -235 281 -307 337 -109 83 -199
111 -259 78z"/>
</g>
</svg>
